<mxfile host="Electron" agent="Mozilla/5.0 (Windows NT 10.0; Win64; x64) AppleWebKit/537.36 (KHTML, like Gecko) draw.io/26.1.1 Chrome/132.0.6834.210 Electron/34.3.3 Safari/537.36" version="26.1.1">
  <diagram name="Page-1" id="i773-z5fooT3T3S39814">
    <mxGraphModel dx="1036" dy="609" grid="1" gridSize="10" guides="1" tooltips="1" connect="1" arrows="1" fold="1" page="1" pageScale="1" pageWidth="850" pageHeight="1100" math="0" shadow="0">
      <root>
        <mxCell id="0" />
        <mxCell id="1" parent="0" />
        <mxCell id="z0f8_SjItQ-B4fkTCba1-9" value="&lt;b&gt;&lt;font style=&quot;font-size: 14px;&quot;&gt;aws-iac&lt;/font&gt;&lt;/b&gt;&lt;div&gt;Git Repo&lt;/div&gt;" style="verticalLabelPosition=bottom;html=1;verticalAlign=top;align=center;strokeColor=none;fillColor=#00BEF2;shape=mxgraph.azure.git_repository;" parent="1" vertex="1">
          <mxGeometry x="120" y="450" width="50" height="50" as="geometry" />
        </mxCell>
        <mxCell id="z0f8_SjItQ-B4fkTCba1-10" value="" style="shape=image;verticalLabelPosition=bottom;labelBackgroundColor=default;verticalAlign=top;aspect=fixed;imageAspect=0;image=data:image/webp,UklGRsobAABXRUJQVlA4WAoAAAAIAAAAMwMALgIAVlA4IOoaAABQ2gCdASo0Ay8CPnU2mEokoqKhoZCY6JAOiWlu4XYBGyK/5DXSO9fkz/Q+nf3R7yZQn4n+WfnDqSeYB+g399/nH9w7LXmA/jn+39XH/JfpX7vv+96hP/U9P/1QPQA6VD9qvQA/////7f/pN+mv+A/tv7EeCv97/JX92O7J9F+0vnO+UOJT8b+9/47+yfuL+WnOjwC/xf+Pf3b8kf7t+1XHtgC/Mv6f/s/8F+UHlC+iX9f/gv9j7gH6yf8Dj2KAf8e/rX/R/yXu2f3P/z/ZT9jvbj9Vf+v/TfAd+t3/P/v3aP9H392w59Nybk3JuTcm5Nybk3JuTcm5Nybk3JuTcm5Nybk3JuTcm5Nybk3JuTcm5Nybk3JuTcm5Nybk2/7cQ+f3byfk/J+T8n5Pyfk/J+T8n5Pyfk/J+T4hCdL6aY2KOcXOP7U2ptTam1NqbU2ptTam1NqbU2ptTX7Vj2/O1WVvcvZcBNqbU2ptTam1NqbU2ptTam1NqbU1+1YW42s5318CziKvfB03JuTcm5Nybk3JuTcm5Nybk3JC1YZJZiCVFyGrO7goqxE/J+HLnynEwd/eMlgsRPyfk/J+T8n5Pyfk/EyrDJLgcDiqfj4r+su1lKpqDNdYrq0+EOFpMgdA6B0DoHQOgdA6B0DleTmaUEHtTNv61Cr4v/O0DzylGh+EIQPOi7AFc/J+T8n5Pyfk/J+T8n5MTPNyZ0hAr6n2bo8z2kkWPQiqWeGqOyibixitJkDoHQOgdA6B0DoHQOgdAxKKGeL4iA5WeyM9pGwlZNHprudeT8n5Pyfk/J+T8n5Pyfk/MDIPaccyLkwKDKDOr1J9py/NXfnOvJ+T8n5Pyfk/J+T8n5Pyfk/kbSQiuwevQtjREalkyPaIswBaEdRGpabU2ptTam1NqbU2ptTam1NqWfVWPd38rKcQxFu3UVCGSmTLf7c6h1f642r/7cjST8n5Pyfk/J+T8n5Pyfk/J+JlCPuwr8qlbeXb1MqSYRh/5dDLBSiXJBEEBWXn03JuTcm5Nybk3JuTcm5Nybk3BGmAL2i1h3Batj2UgJW6EWLGQcf/zhkmulqlQHQOgdA6B0DoHQOgdA6B0Dn7zUC9ZYe0R9BAIryybk3JuTcm5Nybk3JuTcm5NybkhasMkuBXPyfk/J+T8n5Pyfk/J+T8n5PyfkyO7YcraTIHQOgdA6B0DoHQOgdA6B0DoHQOV5P+FCOb2hX013OvJ+T8n5Pyfk/J+T8n5Pyfk/J+T8p4wYzlIWIdK2cD/o4DoHQOgdA6B0DoHQOgdA6B0DoHQOkJdxDMjFhV/a3BZOvJ+T8n5Pyfk/J+T8n5Pyfk/J+T8n5QGn6BPGtoljLT+4Ze6MQHQOgdA6B0DoHQOgdA6B0DoHQRcIDoHQOgdA6B0DoHQOgcsMGhSOBpElT4f/+J60HUEjN3jeH9p0m1gST5DPyfk/J+T8n5Pyfk/J+T8n5PyfBgmVtiZYRantu9Y0BLgpxpBnUQOtgx+s5knxFgJxFcaSV8X9s3D1j9T9/GCZiUA5XV8npIaFBirCkBPyfk/J+T8n5Pyfk/J+T8n5Pye/PL/U8ZNUYHjE17QUs86klh3M8Ibe1Vve61Ml2ptTam1NqbU2ptTam1NqWu723EATNsivG2HQbYvdGIDlrKW+ONTkYh9JWeHHbyqA6B0DoHQOgdA6B0DoHRpT64uw3Mcu5tPio+JGGDMogWXPRF98ZKCn9Q8pcr5uTJba+/3b4BIJ4orgOvaTHf+N8Fx5Ptp8VbPiPP6sHoGrWmFd9SBzPUOIE+2QAWIxP7KDIdHCSh5hpZkk129Fj6k1rQ3HJYXgbDBQuy+o4dNybk3JuTckJIlBq8Gj5K0qGFzBkf3/ZPySL4Z/LvWT2mKpOvqTPqAcyfPelpR0r9elNCfqs5LiADvZ0WDsVNwZ461XNVC85aVUW8qUpUvBcH4TM3v1TieVS7xpsFpfcqmgTXPkga4eWAvM8MvdGIDoHQOXN0fBRLbFwRq21REmNep6vLeunIKWQm6VzsKVhOWJPGbATsISwqDqOHTcm5Nybk3A/eR3Y2YKGnqGqRBEq06n7dp8yxUu3uFWGVTJAbP6o73PylmZTzmVwrSfUO2oNFOoUr/2rnEzixN0iizMqP73ViNzPDL3RiA6Bz9UTaJzZ2Yvr35XcaypOCI4QgYU9C7X3goLfGL3syk/8PtNcfAsH6Ep2xQbnnI7Le2moqXKvqEzgGq1MQyzRlA47Kh47dwHzQNgsAZpdJUWPyETDnsZ4Ze6MQHQOgdA6DQ8JM3IXQOgdA8m9sJO8gOgdA6B0DoHQOgdA6B0DoHQOgdA6B0DoHQOgc/IAA/v+8LABhNgABSdufwVk4mxRVU4Uufgu1N45/ZMnfWFMlSak8lcrXVldeTgAVE8HiaK0nEwvg35zb4SitnLsd1wxDBRHqWcZhasnzD7zstuRq+P/KkzI3Dp7rFC8Xc7v2wI6nTu8aAoswBQr5S6A8sTA/ckCM6MrbFPxNBWg5NgsPQ2+4+fODlNqzXm4EzrHO3LnX/5X6USChbRn71uLPcFK7AcAfHWqlbDTIRjYkGRVhIGMa5szjcZKKiZoB+qh4t3/hcILkK9Q4kBkrDtJsGx6BekpJamx55A1gZH+NQ6+c/cinAi3IQvZTTnuO9aVqHNFnxxxbCMfSgBLyVLIBbYNcelKSi7ltJLfxJtLO7535IJZwD3gYkRPfK69wK2ZP8n5NLcUN6w06mQ0hMjvnXMefoQWDgiEKcrxTRPSakNBzACffgXzWFAhI7nxzKrmhYazebCOXRvGEnz8zc0ZV24vNexKSlseMADVZJz1s4p5lHU/VnseAHyY0grePgeNwrI4L4WfRtiSGd22exPkrCudl5Gr9UIJnVz3ccQYEGNPE2V30QTWRN2ndxdgWnPn+vb6cdOK8zHG0S2HcMT1je9KYYKMX2EOR9uG2/aFQ6Fb3VAnzqUPEWIs0gC+fOoRNjuyUsj8xhT1rN9opLgEqYGRMYUwqaw19bV5G1Axc554nxjaUcRdgzf/NOZqiiY43D1AGLaRixpnNGgd7mbBSZtsx4O5apE1el4MhzbjUW+Hs650CwFIOjVBABtiioJ+QKPnTXwui9Y9FD/zO+crH8jOvCjGQ60Gcku+5tg0sFvn7OskZxnvrgKp5TnCfyq9jdMqs744bRtbFOAPB9YcvpcdZ6rv8C7pTtDxtwPhPLQ1z1gz46DOTM2xEatwmRRy0HE1JeF+238+d1/uAWw9nluvCH12JZQxxpzJsr8tvdGnAIeIFXLmPO6nmX+qbDjbdGTzS+4mkBaQaGPBHKRh+00dyTQCm7ADLDJ7BGylfQ/TyypBouKvWm4b7QUwL6feNTs6OZOSihYKHjm7pITq/8QIH99WEZtKppaXj9fIUp8NNGcD7nu3WSifQH1wArhPKnY/hdopnX5V+i9MAU/Rk75mPTcOEF4BwoZ9/SNuLbXTsmDPHveYWo7Fa9JxTfRhTKMEH5svAgEDaW1vxuXomoZ9jZVZ1WDkN5N3H9RZg8m7kjuJ948D2LPeDmpPqgBV9/Gia/dQaIdrZtN8Q9Ci4FMt3jqIEzGKANEnJz1VOgcfkGRffWP5UAnNU5aOUBJrVKFzq2vQbfqbp4vaIgnk68vv0O1RPFbPUoTQT8rM/6o6rV4/ywNKxeHhTarUBQdQZphmukdFLsO2J494JUFpgDLCJcgdMOJ6wBifbbuCnPcdpuzYqEGQXkdAw5LlUl/hN0ye1cFDDH06wqZBugANpfVks8g6LDUttdwSt8/C5JGp4d69aNTWBqF1d6KRUECZfb1SiIOwIXNCkZN9NI860gqJbMzfZZ0rK+OBZZ53L4Qu/e5VD0+vz/diK6mAGbBa7y42LlhG4YuKYbIG8cQVqrP18EGv6cOO7Swdn+gDbkjhwiBql76vS/ZjpEiNkrehrkwiVv/wMmsIIUakk6wDDHCRQJoX4cvgAcs75Mv4OMAZ88yRA9srXr53WXlrRo9P+nbL7KR5M2AFTWyeuyB6vo2yWPs/dxpboxdWo9L/ErcvRJYAkzT4Y5ekmjuS5wWwzNTCphLsGDs0chGLtK4VydNibVpXl3sPPpmmWLfak/C/GLRPk+kDUAQRaYnCTUD0xfGJD+2vUt6Sp2+Kmah7qb4x0vl1RoO2OY4TTWkQYYbv8KRey3NVVfoMfVMP9WUAO4mavgpcVc+hvK0HrDGu5sc7dM+4bK7cKACo99VZwcMZ4oAaj9oD3yx1B4ciStuaa/01Z/GTTkYjoa+8OloDPcsdbs4kAGDUOOUo2hbi3DARsC9Ju8ItHxNX+2V07foVdWqq6N56Y+GKc5JF9KSx3HZqHpOlVUs8lIy/3Pd93QWdKDV9J5rYcr3O2D3tTAaXVjW82UxUf6UfpwwjSP7kP9As9MCPFHfrt7FgZrP8KtA8CbnTmWoSKmAQUMAACzhJtrEO02Vrs6QFV3K3FCMFCzMx7HaLqgkixh9/cTfZ/gpqt+cwoADIFkqLWylgAAoIMUAB2i+/6MFCPGD/sOE9ctlUIpBhNxXY1lKKrhtiEcaYkDy6PKShQAFTMajGN+oJmjefRPEiEIAdum1cjIoTKdvWh276auzMuic4xOMr8aASItI1v7U+pU5UAAKGY1JHNDmFQPQTvnQ+l7UopyXH8h+IxJHNgv1FW6lSe0oFrTNfJhAImp67mZFupTW/yC1y91gAICYJiQS1lVvh5lPCBJGY4jJCOglAFtbI+0fsPEdTmd/LgmcrgPgl3IvDf+H4AAAC8IRTuvAqvXbWAbyL5lnNbCrjFMhjOf47fAVI9DJfjh6Lmkg2x7EoAWx9WpURVmnubO+MytOxGYDK6NR8SCPdoRlIDROLRJrP4TvNhBQEAg7QFjc53KR4bWzorKnkemaZNpR3Ptv8HGsatZgdXJ56zSteWubWkf9xIUxiM4NrHuTdNAFD4zcKRn/4xju8etJsJ/hKP6bjbYHtxRD/jfWXYB6HJUaG+K8Z3SHK5XL9C+eYRTI301OmM7uUzTChi4xfcj+JwAvaoIMTVNFhGV6ajvhJSlfzhRJw8gdNgPXEeNgTUu9zIrenYgbE4XZaPUGTeHIEYMgv27uQJZ7crY8wmH6WE/1LhVEOm0fs8sj/5bTcmPnKpjop9GG+q3IiDQ4aAAPjR/g57He+UIN1xN2ytXh0FFQR5CeQPqbBpiV4VQ2Xcu3fDu17IKww+Q16abM9GT2NawjC/vIgkl1aP8oXXh5+xCtDkxVWy2Lf+eCE/llZ+zVk3orrG7gcZaxEpBrGpK/QvDa2xwRqJY3nb8rItdzHaUtle+EAIY1AbrF/81thZSCJFhRpwWp0EAIC4aafYgXQ51anP99r0m55flCWalErYG27+9bTXf4gW9PDPWuuYKKm2OtUPR51fhgd3Hs8/zMNxZXBHM5BJYAYAuda33Po87mrcdFXJGXeIeRuiZeiCkbU/xF7EKGIQvLirmdOXk+eEfTASDtLhVMii6yy6a5loOrxjkMYZYefryXX2nf/tIVPOPEeufIO5gGWatx8YRO0n2hYLUIFtXtRQlqaYeN19tNyNd4i5ZqTGy3ksfe+tM4KCnf0JXFhSAxXIKolnYwCvwVHBv1VEMJX9ETnC4FRuUp+ZQ8Eff//u7wsNq1+O+2w6vtvSQApHnh9V/loclwISwvhYe+vsf9BV/uejbjTk7R0Ztadyply87hIumaWbB13mAoSvsPYF4zwOFajwOFk6T6BorCgNC7UIfnktmLIQKsiXX8CzpaUkzwJDSAlCs21z4Q4hV+n4ZTH3YkARn6aVsYc2D3gHhj6CyzUSE1/heJXRHohUjVlccYfGGDnVAukGi2h0nm9bWA1PvyUg4ZfsrH6oq1uA883yeJ36dz+Vu3daQDSBvgX8Kcry0sdFAwlAvDOq2QUMACOYhpQo/ifKkKr6cCNi9OHp+rmZrBAe+A/4zEqMJwStlCKc/MTk3y5H4ZaWmJVcyuHnBMPY6m4CfGBNCZjFWNBHZ5cfEZjUddgGU4zxNE4ajU5J8hEdg7QpOA3Wd4OP+FOsjol0nOVJoATrDmbTGxrUnCWf19zRZRI8fpmCObNlYzARJzJ4F7r7X3p0cX4Y3f8qPu3YaCMTxxvAy4giMFH3ZlgDFlw8HmahRJgCDyMSWz+E2VGxfUyLI2OJoZhq+Zo6udUkdOqElsq/c73Mnz4sfmGIwK1noYXwAD+Qoc0UIToma4G35XFytg7LuhF5mCRVkErVcgMQXCJy1Jel4UHzQtNgYp9Nhx9OI3I4NAI2s6Upv/kpI0pUOC0UFJBjCHb1uZJzn3IXsaTLA1T614HoPWTaWGl/vedChkSJdqcMSaye8TvEJGFiXq36L64/2vT62Lc0aooC+zudm8jJmetxJxg6DL/XvkzU+8/ceEFp836zjR05xW7zSmJrcsJNdDLIX+jgxS8Blvcdt7BRsPMcSNfE3cP42TQo/Kbck5YX6PaputfQkqJQDAZm50p0qwFpWmAhB/3Kds3UjV1lzNBTm8mlTgajy32Qh5FUIV4z4SWtc+oVu4h1LLPLt8RtpHcVCTC4ELkJtGY7gncK+w2roACeEJapIkx2aUqhkYOs9cEFQiXR8eiJ2r0R6I/U04Lhuc90Zo93NntZKvXa4Ni9whp7mDshkvok2laibuBxQRIIYdFiF+WrnhR1EEvHvpxVp7eK5HhymaBepaThO1PMGjEZbwHO0IzA15euE05GNGs/7oSV7r1PTUaPMB2bHfVcRQ4Beg3CjrKNAO/6/J9OOk1j8UAkOtqrYyLnZc0y/tqP/fTJCH3v2oDJZrOMVVO88PMK5imO34bb6KdbJsgha50aPfnh2TRNtaEnuRNWVgBInu/2/E54xQqROHrF4XGK4zaFzLLBuU/r5aGFpLjLTIibl6xOXt/8NNg7MQ8a22D2CBkMovp+5ZyWp+KbEWr1RVZXm2pFZEc+trKguRSOPPmbcs1OyOvrgP4gGWqLk0h/A6zj5P+RUoiF3ninx31yeE1SzvK8qViVv3v8aPhp81jyOd0Dc/MWOB/KrsL5Yqw8EqikXpPg1VS1NWVh9ZJarZmANwfhWRKjYIyb5Gwybf2fpH99KAyOK8eFUF1v9vrp/KODqtKCC8o0V2SI6yFL4oxZS5q5stC2eK96WJyLH4zWGrGP220gTmctWlMFEbviVL/0TZLjVB1bZ9zdLcodzWhgYflUPJQRUEn/J4SjTuajKTExE3DK0z+WnzcqdweDe4l6FpGykH520Uh20mhdI7FeVhTP+a6j675bsRkDlo269RPbDpspfOgA+S2cjJ5RtSX7uTxFfV9k7CxE4+5deri2ofJLql05h0UDSTqRUvPjBoTVMP9CqV9b4QdRmu/Z85fjALeFQmoJ7foU5fWsRr2202HsH/6qcC/HSyPnmanDraZ7fqh0VP/qjrDQj1joueFo2m6HAvhLQmQDh/UCyafZrwCkm9BquwiUwgSaWiI4BORm576dqEznYKEhRSlezeRgb0Nr85kbDOqceXdMvR5kkIJt161Ep4nPC7L4b+4SSqd4bR1L/05mwNe51PQzgW+mEOuzXT0b+Pr/sj7BQruvGDIqxXRylScLA4AAtbAqOVwcQKE8Z7ekwRQnnPBflaMnPgDd9oAQTYMJ6dpkwizdZ8zSLFWiwBZ8yzo8U4MvK1KMuKzsetP/2U7R8wHgtQQYtQ7VwnYPzw5zhpBc5fpKe0WCXjNgafimmBQd5SDGa4Pbk0GsSbhA6yaqGFOQ7y3I1zzii7LiuXVjLqDGEErVsn4oalxkmiNTLvZF+L+thr5fUBUuuKrwUlGO7VTAuwKojaWnLcoArYvmJcGKac2alGC1krnqHSNAxizrUNQ/J1iADLW0oPt+0vGazlBzmRMJYnkbzk3EI7ObD4Tq9C3UmkkV2F6C8ufplJ3tWluD2DsCWG+EmcLxTx5Wy/FRleoHmlfTFTA6uzxKn/75FSxo/95h3IDOCMem9NL8el3CoQZynebGxagn++HutxBkdk63bVPts9cYHxS2K347mAj+rKf1RdokvIftjHaKTKbMJTIPsTl52NBeET+PwR5Wh5kkBrgDayW/nIrGcaAKNAkZ9r36J2vgBnPSpx6BAI7u6V9pZ2EUAuMaE/E0Mi5rYUAu7clGhdSooA0H8KBXhV9c2yRT5uo/a30io3L91HlNhNg5h/MsOZU/JRZMX0u+iaMiET44UfWqnHEfiix1KrPmGML+dJBntQW48/LvoSE0x10P13BKV+ymCdHVgKWten/E/tSmAKqId2y7UrgYPoosZF8HjZQJFBjuiy84PBPN93sqO1bBO1usUsb93HZIuLHXJRI4IWaO2xy3B85n3Xfz8VTn/0H+mJrvdnkzc+2VEq2Q9iJsbcwto9TxT++OG3/SP3MhPyqIVtgYYJNAxRTSmC1I0DCgm0xNzzigTpWHoUSldIRxEaH+yT/+8KptUqSCE1WZRVwwY19wfmgiS+30g0dSL7bwQW5M0sX2llXmw/+q+nCmXBct43J7fGWsWBdgcS3PG2ZsNhupi2OEjeVlYeVbBYKIxBiXSELa3SiD6SQS2dv1ulp/7M25RiPzLS5qD1pwssVp9RmHacSxlyVlCKo35D8agLgzJZ5O6QM9fWKulO6bK2saYMeNpohkveF56MrsNefdlxdutftOyX9uaeuQ0usdYuQKgIhiTVDa9M/FKoMB/6MCMKM+fNnrNGV0oPo71U9YLUZsk9pTaKn7p1a+++VjZwhhWN5Xw6DKgtRpUTRGb2ylUj9eTw4pjGHr9ozuZNSg5CHW28K+m3/3ia0cz2oDFSa2Y4He9Dr1PkUJFug1ARemPkVtLDBB+j5IabvCilUqoxhL1ziyHNaaRuNVAEnWXF3xaCFY73trv/hMM3Fh9XRrQWt2zg6j6aomylNRBSMLclaOK7dsG+eA99PGj54v6NU9JYZFprB4dhvByanpzyp98DDfSaOdb/xHxoJ9LxEH5sryxAPEVwg5q848LDrZXqP94KF8Bn8S+wHoH6QG6nw0ks4Udmr82zwINteiVeVIwp2ajXW26goJoRDPXNKhWe2uyOBmacBngtRYLKqgyvsHquXCQMiA/jbW9SwCbEfpEqd8Z6k563+hqjKvHy1jTAcyUMjJOy67WRcgXrLyzh0lj5/2ICYmU7jS/AYAAAAAAAAAAEVYSUa6AAAARXhpZgAASUkqAAgAAAAGABIBAwABAAAAAQAAABoBBQABAAAAVgAAABsBBQABAAAAXgAAACgBAwABAAAAAgAAABMCAwABAAAAAQAAAGmHBAABAAAAZgAAAAAAAABIAAAAAQAAAEgAAAABAAAABgAAkAcABAAAADAyMTABkQcABAAAAAECAwAAoAcABAAAADAxMDABoAMAAQAAAP//AAACoAQAAQAAADQDAAADoAQAAQAAAC8CAAAAAAAA;" parent="1" vertex="1">
          <mxGeometry x="344" y="420" width="161.36" height="110" as="geometry" />
        </mxCell>
        <mxCell id="z0f8_SjItQ-B4fkTCba1-12" value="&lt;b&gt;&lt;font style=&quot;font-size: 18px;&quot;&gt;Instantiate IaC components&lt;/font&gt;&lt;/b&gt;" style="text;html=1;align=left;verticalAlign=middle;whiteSpace=wrap;rounded=0;" parent="1" vertex="1">
          <mxGeometry x="130" y="270" width="330" height="40" as="geometry" />
        </mxCell>
        <mxCell id="z0f8_SjItQ-B4fkTCba1-16" value="" style="endArrow=classic;html=1;rounded=0;exitX=1;exitY=0.5;exitDx=0;exitDy=0;exitPerimeter=0;entryX=0;entryY=0.5;entryDx=0;entryDy=0;" parent="1" source="z0f8_SjItQ-B4fkTCba1-9" target="z0f8_SjItQ-B4fkTCba1-10" edge="1">
          <mxGeometry width="50" height="50" relative="1" as="geometry">
            <mxPoint x="590" y="420" as="sourcePoint" />
            <mxPoint x="640" y="370" as="targetPoint" />
          </mxGeometry>
        </mxCell>
        <mxCell id="z0f8_SjItQ-B4fkTCba1-17" value="" style="endArrow=classic;html=1;rounded=0;dashed=1;dashPattern=8 8;" parent="1" edge="1">
          <mxGeometry width="50" height="50" relative="1" as="geometry">
            <mxPoint x="610" y="340" as="sourcePoint" />
            <mxPoint x="510" y="410" as="targetPoint" />
          </mxGeometry>
        </mxCell>
        <mxCell id="z0f8_SjItQ-B4fkTCba1-18" value="&lt;blockquote style=&quot;margin: 0 0 0 40px; border: none; padding: 0px;&quot;&gt;&lt;b&gt;&lt;font style=&quot;font-size: 14px;&quot;&gt;READ:&amp;nbsp;&lt;/font&gt;&lt;/b&gt;&lt;/blockquote&gt;&lt;blockquote style=&quot;margin: 0 0 0 40px; border: none; padding: 0px;&quot;&gt;&lt;b&gt;&lt;font style=&quot;font-size: 14px;&quot;&gt;&lt;i&gt;/iac/vpc/{&lt;/i&gt;&lt;/font&gt;&lt;/b&gt;&lt;b style=&quot;&quot;&gt;&lt;font style=&quot;font-size: 14px;&quot;&gt;&lt;i&gt;VPC-NICKNAME&lt;/i&gt;&lt;/font&gt;&lt;/b&gt;&lt;b&gt;&lt;font style=&quot;font-size: 14px;&quot;&gt;&lt;i&gt;}/config&lt;/i&gt;&lt;/font&gt;&lt;/b&gt;&lt;/blockquote&gt;" style="text;html=1;align=right;verticalAlign=middle;whiteSpace=wrap;rounded=0;strokeColor=none;" parent="1" vertex="1">
          <mxGeometry x="220" y="328" width="313.14" height="60" as="geometry" />
        </mxCell>
        <mxCell id="z0f8_SjItQ-B4fkTCba1-20" value="&lt;blockquote style=&quot;margin: 0 0 0 40px; border: none; padding: 0px;&quot;&gt;&lt;b&gt;&lt;font style=&quot;font-size: 14px;&quot;&gt;&lt;i&gt;{&lt;/i&gt;&lt;/font&gt;&lt;/b&gt;&lt;b&gt;&lt;font style=&quot;font-size: 14px;&quot;&gt;&lt;i&gt;VPC-NICKNAME&lt;/i&gt;&lt;/font&gt;&lt;/b&gt;&lt;b&gt;&lt;font style=&quot;font-size: 14px;&quot;&gt;&lt;i&gt;}&lt;/i&gt;&lt;/font&gt;&lt;/b&gt;&lt;/blockquote&gt;" style="text;html=1;align=left;verticalAlign=middle;whiteSpace=wrap;rounded=0;strokeColor=none;" parent="1" vertex="1">
          <mxGeometry x="140" y="470" width="190" height="40" as="geometry" />
        </mxCell>
        <mxCell id="z0f8_SjItQ-B4fkTCba1-21" value="" style="endArrow=classic;html=1;rounded=0;dashed=1;dashPattern=8 8;" parent="1" edge="1">
          <mxGeometry width="50" height="50" relative="1" as="geometry">
            <mxPoint x="510" y="440" as="sourcePoint" />
            <mxPoint x="610" y="370" as="targetPoint" />
          </mxGeometry>
        </mxCell>
        <mxCell id="z0f8_SjItQ-B4fkTCba1-22" value="AWS Cloud" style="points=[[0,0],[0.25,0],[0.5,0],[0.75,0],[1,0],[1,0.25],[1,0.5],[1,0.75],[1,1],[0.75,1],[0.5,1],[0.25,1],[0,1],[0,0.75],[0,0.5],[0,0.25]];outlineConnect=0;gradientColor=none;html=1;whiteSpace=wrap;fontSize=12;fontStyle=0;container=1;pointerEvents=0;collapsible=0;recursiveResize=0;shape=mxgraph.aws4.group;grIcon=mxgraph.aws4.group_aws_cloud_alt;strokeColor=#232F3E;fillColor=none;verticalAlign=top;align=left;spacingLeft=30;fontColor=#232F3E;dashed=0;" parent="1" vertex="1">
          <mxGeometry x="540" y="230" width="310" height="459.25" as="geometry" />
        </mxCell>
        <mxCell id="z0f8_SjItQ-B4fkTCba1-15" value="" style="outlineConnect=0;dashed=0;verticalLabelPosition=bottom;verticalAlign=top;align=center;html=1;shape=mxgraph.aws3.virtual_private_cloud;fillColor=#F58534;gradientColor=none;" parent="z0f8_SjItQ-B4fkTCba1-22" vertex="1">
          <mxGeometry x="80" y="350" width="79.5" height="54" as="geometry" />
        </mxCell>
        <mxCell id="z0f8_SjItQ-B4fkTCba1-2" value="&lt;b&gt;&lt;font style=&quot;font-size: 14px;&quot;&gt;AWS&lt;/font&gt;&lt;/b&gt;&lt;div&gt;&lt;b&gt;&lt;font style=&quot;font-size: 14px;&quot;&gt;Parameter Store&lt;/font&gt;&lt;/b&gt;&lt;div&gt;&lt;br&gt;&lt;/div&gt;&lt;/div&gt;" style="sketch=0;outlineConnect=0;fontColor=#232F3E;gradientColor=none;fillColor=#E7157B;strokeColor=none;dashed=0;verticalLabelPosition=top;verticalAlign=bottom;align=center;html=1;fontSize=12;fontStyle=0;aspect=fixed;pointerEvents=1;shape=mxgraph.aws4.parameter_store;labelPosition=center;" parent="z0f8_SjItQ-B4fkTCba1-22" vertex="1">
          <mxGeometry x="92.5" y="80" width="75" height="78" as="geometry" />
        </mxCell>
        <mxCell id="z0f8_SjItQ-B4fkTCba1-19" value="&lt;blockquote style=&quot;margin: 0 0 0 40px; border: none; padding: 0px;&quot;&gt;&lt;b&gt;&lt;font style=&quot;font-size: 14px;&quot;&gt;WRITE:&lt;/font&gt;&lt;/b&gt;&lt;/blockquote&gt;&lt;blockquote style=&quot;margin: 0 0 0 40px; border: none; padding: 0px;&quot;&gt;&lt;b&gt;&lt;font style=&quot;font-size: 14px;&quot;&gt;&lt;i&gt;/iac/vpc/{&lt;/i&gt;&lt;/font&gt;&lt;/b&gt;&lt;b&gt;&lt;font style=&quot;font-size: 14px;&quot;&gt;&lt;i&gt;VPC-NICKNAME&lt;/i&gt;&lt;/font&gt;&lt;/b&gt;&lt;b&gt;&lt;font style=&quot;font-size: 14px;&quot;&gt;&lt;i&gt;}/runtime&lt;/i&gt;&lt;/font&gt;&lt;/b&gt;&lt;/blockquote&gt;&lt;blockquote style=&quot;margin: 0 0 0 40px; border: none; padding: 0px;&quot;&gt;&lt;div&gt;&lt;b&gt;&lt;span style=&quot;font-size: 14px; background-color: transparent; color: light-dark(rgb(0, 0, 0), rgb(255, 255, 255));&quot;&gt;{&lt;/span&gt;&lt;/b&gt;&lt;/div&gt;&lt;div&gt;&lt;div&gt;&lt;span style=&quot;font-size: 14px;&quot;&gt;&lt;b&gt;&lt;span style=&quot;white-space: pre;&quot;&gt;&#x9;&lt;/span&gt;arn: ...,&lt;/b&gt;&lt;/span&gt;&lt;/div&gt;&lt;/div&gt;&lt;div&gt;&lt;div&gt;&lt;span style=&quot;font-size: 14px;&quot;&gt;&lt;b&gt;&lt;span style=&quot;white-space: pre;&quot;&gt;&#x9;&lt;/span&gt;subnets: ...,&lt;/b&gt;&lt;/span&gt;&lt;/div&gt;&lt;/div&gt;&lt;div&gt;&lt;div&gt;&lt;span style=&quot;font-size: 14px;&quot;&gt;&lt;b&gt;&lt;span style=&quot;white-space: pre;&quot;&gt;&#x9;&lt;/span&gt;...&lt;/b&gt;&lt;/span&gt;&lt;/div&gt;&lt;/div&gt;&lt;div&gt;&lt;div&gt;&lt;div&gt;&lt;font style=&quot;font-size: 14px;&quot;&gt;&lt;b&gt;}&lt;/b&gt;&lt;/font&gt;&lt;/div&gt;&lt;/div&gt;&lt;/div&gt;&lt;/blockquote&gt;" style="text;html=1;align=left;verticalAlign=middle;whiteSpace=wrap;rounded=0;strokeColor=none;" parent="z0f8_SjItQ-B4fkTCba1-22" vertex="1">
          <mxGeometry x="26.999999999999964" y="170" width="293.43" height="130" as="geometry" />
        </mxCell>
        <mxCell id="z0f8_SjItQ-B4fkTCba1-23" value="" style="html=1;shadow=0;dashed=0;align=center;verticalAlign=middle;shape=mxgraph.arrows2.arrow;dy=0.6;dx=40;direction=west;notch=0;rotation=-148;" parent="1" vertex="1">
          <mxGeometry x="500" y="522.06" width="125.75" height="76" as="geometry" />
        </mxCell>
        <mxCell id="aRMo30rtuyaijZ9Dq2SD-2" value="&lt;blockquote style=&quot;margin: 0 0 0 40px; border: none; padding: 0px;&quot;&gt;&lt;span style=&quot;font-size: 14px;&quot;&gt;&lt;b&gt;&lt;i&gt;/iac/components/vpc&lt;/i&gt;&lt;/b&gt;&lt;/span&gt;&lt;/blockquote&gt;" style="text;html=1;align=left;verticalAlign=middle;whiteSpace=wrap;rounded=0;strokeColor=none;" vertex="1" parent="1">
          <mxGeometry x="50" y="410" width="190" height="40" as="geometry" />
        </mxCell>
      </root>
    </mxGraphModel>
  </diagram>
</mxfile>
